<svg version="1.1" id="Layer_1" xmlns="http://www.w3.org/2000/svg" xmlns:xlink="http://www.w3.org/1999/xlink" x="0px" y="0px" height="200px" width="200px" viewBox="0 0 500 500" style="width: 188px;" xml:space="preserve" data-imageid="doctor-67" imageName="Doctor" class="illustrations_image">
<style type="text/css">
	.st0_doctor-67{fill:#FFFFFF;}
	.st1_doctor-67{fill:#DFEAEF;}
	.st2_doctor-67{fill:#725858;}
	.st3_doctor-67{fill:#093F68;}
	.st4_doctor-67{fill:#68E1FD;}
	.st5_doctor-67{fill:#FFBC0E;}
	.st6_doctor-67{fill:#FFC9B0;}
	.st7_doctor-67{fill:#F56132;}
</style>
<g id="hospital_doctor-67">
	<rect x="100.1" y="253.5" class="st0_doctor-67" width="88.3" height="18.3"/>
	<path class="st1_doctor-67" d="M188.3,273.7h-88.3c-1.1,0-1.9-0.8-1.9-1.9v-18.4c0-1.1,0.9-1.9,1.9-1.9h88.3c1,0,1.9,0.8,1.9,1.9c0,0,0,0,0,0&#10;&#9;&#9;v18.4C190.3,272.9,189.4,273.7,188.3,273.7C188.3,273.7,188.3,273.7,188.3,273.7z M102,269.9h84.5v-14.5H102V269.9z"/>
	<rect x="88.2" y="271.8" class="st0_doctor-67" width="112" height="141.5"/>
	<path class="st1_doctor-67" d="M200.2,415.2h-112c-1,0-1.9-0.8-1.9-1.9c0,0,0,0,0,0V271.8c0-1,0.8-1.9,1.9-1.9c0,0,0,0,0,0h112&#10;&#9;&#9;c1,0,1.9,0.9,1.9,1.9c0,0,0,0,0,0v141.5C202.1,414.4,201.2,415.2,200.2,415.2z M90.1,411.4h108.2V273.7H90.1V411.4z"/>
	<rect x="140.4" y="285.9" class="st1_doctor-67" width="7.6" height="18.4"/>
	<rect x="135" y="291.3" class="st1_doctor-67" width="18.4" height="7.6"/>
	<rect x="104.9" y="315.2" class="st1_doctor-67" width="9.5" height="14.4"/>
	<rect x="122.2" y="315.2" class="st1_doctor-67" width="9.5" height="14.4"/>
	<rect x="139.5" y="315.2" class="st1_doctor-67" width="9.5" height="14.4"/>
	<rect x="156.7" y="315.2" class="st1_doctor-67" width="9.5" height="14.4"/>
	<rect x="174" y="315.2" class="st1_doctor-67" width="9.5" height="14.4"/>
	<rect x="104.9" y="340.5" class="st1_doctor-67" width="9.5" height="14.4"/>
	<rect x="122.2" y="340.5" class="st1_doctor-67" width="9.5" height="14.4"/>
	<rect x="139.5" y="340.5" class="st1_doctor-67" width="9.5" height="14.4"/>
	<rect x="156.7" y="340.5" class="st1_doctor-67" width="9.5" height="14.4"/>
	<rect x="174" y="340.5" class="st1_doctor-67" width="9.5" height="14.4"/>
	<rect x="104.9" y="365.8" class="st1_doctor-67" width="9.5" height="14.4"/>
	<rect x="122.2" y="365.8" class="st1_doctor-67" width="9.5" height="14.4"/>
	<rect x="139.5" y="365.8" class="st1_doctor-67" width="9.5" height="14.4"/>
	<rect x="156.7" y="365.8" class="st1_doctor-67" width="9.5" height="14.4"/>
	<rect x="174" y="365.8" class="st1_doctor-67" width="9.5" height="14.4"/>
	<rect x="135.4" y="396.4" class="st1_doctor-67" width="17.7" height="17"/>
</g>
<g id="character_doctor-67">
	<path class="st2_doctor-67" d="M250.9,277.8c0,0-37.9-97.5-14.4-165.2c8-23,26.6-33.8,43.3-25.7c0,0,39.1-27.4,72.5,4.5&#10;&#9;&#9;c42.8,40.9,18.8,173.8,18.8,173.8L250.9,277.8z"/>
	<path class="st3_doctor-67" d="M250.9,279.7c-0.8,0-1.5-0.5-1.8-1.2c-0.4-1-37.9-99-14.4-166.6c4.6-13.3,13.1-23.3,23.1-27.5&#10;&#9;&#9;c7-3,14.9-2.9,21.9,0.2c6.3-3.9,42.8-24.5,74,5.3c18.1,17.3,26.9,52.2,26,103.6c-0.5,24.1-2.7,48.1-6.6,71.9&#10;&#9;&#9;c-0.2,0.8-0.8,1.4-1.6,1.5l-120.3,12.7L250.9,279.7z M268.5,86.1c-3.2,0-6.3,0.6-9.2,1.9c-9.1,3.8-16.7,13-21,25.2&#10;&#9;&#9;c-21.6,62,9.4,150.6,13.8,162.6l117.5-12.3c2.4-14.3,20.7-133.2-18.5-170.7c-31.9-30.5-69.8-4.6-70.1-4.3c-0.6,0.4-1.3,0.4-1.9,0.2&#10;&#9;&#9;C275.7,86.9,272.1,86.1,268.5,86.1z"/>
	<path class="st4_doctor-67 targetColor" d="M399.6,306.2l-47.3-68.2c-1.3-1.8-10.5-13.7-47.2-13.7s-49.6,11.4-51.4,13.7l-47.2,68.2&#10;&#9;&#9;c-6.1,7.8-4.8,19,3,25.2s19,4.8,25.2-3c0.1-0.2,0.3-0.3,0.4-0.5l15.6-22.5l-14.2,108H358l-6.9-114.2l19.9,28.7c5.8,8,17,9.7,25,3.9&#10;&#9;&#9;c8-5.8,9.7-17,3.9-25C399.9,306.5,399.7,306.4,399.6,306.2L399.6,306.2z" style="fill: rgb(104, 225, 253);"/>
	<path class="st3_doctor-67" d="M358,415.2H236.5c-0.5,0-1.1-0.2-1.4-0.6c-0.4-0.4-0.5-1-0.5-1.5l13.2-100.2l-11.1,16&#10;&#9;&#9;c-6.6,8.8-19.1,10.5-27.8,3.9c-8.8-6.6-10.5-19.1-3.9-27.8l0,0l47.2-68.2c0.1-0.2,11.5-14.6,52.9-14.6c34.1,0,45.4,10.1,48.7,14.5&#10;&#9;&#9;l47.3,68.3c6.6,8.7,4.9,21.2-3.8,27.8c-8.7,6.6-21.2,4.9-27.8-3.8l0,0l-16-23.2l6.4,107.4c0,1.1-0.8,2-1.8,2&#10;&#9;&#9;C358.1,415.3,358.1,415.3,358,415.2L358,415.2z M238.6,411.4H356l-6.7-112.2c-0.1-1.1,0.8-2,1.8-2c0.7,0,1.3,0.3,1.7,0.8l19.9,28.7&#10;&#9;&#9;c5.4,7,15.4,8.4,22.4,3c7-5.4,8.4-15.4,3-22.4l0,0l0-0.1L350.8,239c-2.3-3-12.4-12.9-45.6-12.9c-38.9,0-49.7,12.9-49.8,13&#10;&#9;&#9;l-47.2,68.2c-5.4,7-4,17.1,3,22.4c7,5.4,17.1,4,22.4-3l15.5-22.4c0.6-0.9,1.8-1.1,2.6-0.5c0.6,0.4,0.9,1.1,0.8,1.8L238.6,411.4z"/>
	<path class="st3_doctor-67" d="M252.4,391.9c-1.1,0-1.9-0.9-1.9-1.9c0-0.7,0.4-1.4,1.1-1.7l24-11.4c0.9-0.5,2.1,0,2.5,0.9s0,2.1-0.9,2.5&#10;&#9;&#9;l-24,11.4C253,391.8,252.7,391.9,252.4,391.9z"/>
	<path class="st3_doctor-67" d="M349.1,391.9c-0.3,0-0.6-0.1-0.8-0.2l-24-11.4c-0.9-0.5-1.4-1.6-0.9-2.5s1.6-1.4,2.5-0.9l24,11.4&#10;&#9;&#9;c0.9,0.5,1.3,1.6,0.9,2.6C350.5,391.4,349.8,391.9,349.1,391.9z"/>
	<rect x="288.3" y="226.6" class="st5_doctor-67" width="32.6" height="186.8"/>
	<path class="st3_doctor-67" d="M320.9,415.2h-32.6c-1,0-1.9-0.9-1.9-1.9V226.6c0-1.1,0.8-1.9,1.9-1.9h32.6c1.1,0,1.9,0.9,1.9,1.9v186.8&#10;&#9;&#9;C322.8,414.4,321.9,415.2,320.9,415.2z M290.2,411.4h28.8V228.5h-28.8V411.4z"/>
	<path class="st6_doctor-67" d="M296.4,216.5h17.5l0,0v13.6c0,2.2-1.8,3.9-3.9,3.9h0h-9.7c-2.2,0-3.9-1.7-3.9-3.9L296.4,216.5L296.4,216.5z"/>
	<path class="st3_doctor-67" d="M306.5,235.9h-2.6c-5.1,0-9.3-4.2-9.3-9.3v-10.1c0-1.1,0.9-1.9,1.9-1.9l0,0h17.5c1.1,0,1.9,0.9,1.9,1.9v10.1&#10;&#9;&#9;C315.8,231.7,311.6,235.9,306.5,235.9z M298.3,218.4v8.2c0,3,2.5,5.5,5.5,5.5h2.6c3,0,5.5-2.5,5.5-5.5v-8.2H298.3z"/>
	<ellipse class="st6_doctor-67" cx="255.2" cy="171.1" rx="17" ry="14.6"/>
	<path class="st3_doctor-67" d="M255.2,187.7c-10.4,0-18.9-7.4-18.9-16.5s8.5-16.5,18.9-16.5c10.4,0,18.9,7.4,18.9,16.5&#10;&#9;&#9;S265.6,187.7,255.2,187.7z M255.2,158.4c-8.3,0-15.1,5.7-15.1,12.7s6.8,12.7,15.1,12.7c8.3,0,15.1-5.7,15.1-12.7&#10;&#9;&#9;S263.5,158.4,255.2,158.4z"/>
	<ellipse class="st6_doctor-67" cx="354.2" cy="171.1" rx="17" ry="14.6"/>
	<path class="st3_doctor-67" d="M354.2,187.7c-10.4,0-18.9-7.4-18.9-16.5s8.5-16.5,18.9-16.5s18.9,7.4,18.9,16.5S364.6,187.7,354.2,187.7z&#10;&#9;&#9; M354.2,158.4c-8.3,0-15.1,5.7-15.1,12.7s6.8,12.7,15.1,12.7s15.1-5.7,15.1-12.7S362.5,158.4,354.2,158.4z"/>
	<path class="st6_doctor-67" d="M348.7,126.7c-2.8-7.4-7.1-19-7.5-19.7s0,13.2,0.1,19.7h-13.8l-13.4-27.1c0,0-4.7,17.5-7.3,27.1h-20.7&#10;&#9;&#9;c-1.3-8.6-4.5-23.4-4.5-23.4l-7.7,23.4h-17.8c-1.4,7.9-2.1,16-2,24v16.9c0,28.3,22.9,51.2,51.2,51.2l0,0&#10;&#9;&#9;c28.3,0,51.2-22.9,51.2-51.2v-40.9H348.7z"/>
	<path class="st3_doctor-67" d="M305.2,220.7c-29.3,0-53.1-23.8-53.2-53.1v-16.8c-0.1-8.2,0.6-16.3,2-24.4c0.2-0.9,1-1.5,1.9-1.6h16.4&#10;&#9;&#9;l7.3-22.1c0.3-0.8,1-1.4,1.9-1.3c0.9,0,1.6,0.7,1.8,1.5c0,0.1,2.8,13.2,4.2,21.9h17.6l6.9-25.7c0.3-1,1.3-1.6,2.3-1.3&#10;&#9;&#9;c0.5,0.1,1,0.5,1.2,1l12.9,26h10.7c0-1.5-0.1-3.1-0.1-4.9c-0.3-14.2-0.3-14.2,1.4-14.7c0.8-0.2,1.7,0.1,2.2,0.8&#10;&#9;&#9;c0.2,0.3,0.6,0.9,7.3,18.8h6.4c1,0,1.9,0.9,1.9,1.9c0,0,0,0,0,0v40.9C358.2,196.9,334.5,220.6,305.2,220.7z M257.5,128.6&#10;&#9;&#9;c-1.2,7.3-1.7,14.7-1.7,22.1v16.8c0.4,27.2,22.8,49,50,48.6c26.7-0.4,48.2-21.9,48.6-48.6v-39h-5.8c-0.8,0-1.5-0.5-1.8-1.2&#10;&#9;&#9;c-1.7-4.5-3-8-4-10.7c0,1.1,0,2.2,0.1,3.2c0.1,2.6,0.1,5,0.1,6.8c0,0.5-0.2,1-0.5,1.4c-0.4,0.4-0.9,0.6-1.4,0.6h-13.8&#10;&#9;&#9;c-0.7,0-1.4-0.4-1.7-1.1L314.4,105l-6,22.2c-0.2,0.8-1,1.4-1.8,1.4h-20.7c-0.9,0-1.7-0.7-1.9-1.6c-0.7-4.7-2-11.3-3-16.3l-5.5,16.6&#10;&#9;&#9;c-0.3,0.8-1,1.3-1.8,1.3L257.5,128.6z"/>
	<circle class="st3_doctor-67" cx="281.5" cy="160.1" r="4.7"/>
	<circle class="st3_doctor-67" cx="330.4" cy="160.1" r="4.7"/>
	<path class="st0_doctor-67" d="M323.9,184.8c0.2,10.3-7.9,18.9-18.3,19.1s-18.9-7.9-19.1-18.3c0-0.3,0-0.6,0-0.9H323.9z"/>
	<path class="st3_doctor-67" d="M305.2,205.4c-11.4,0-20.6-9.2-20.6-20.6c0-1.1,0.9-1.9,1.9-1.9h37.4c1.1,0,1.9,0.9,1.9,1.9&#10;&#9;&#9;C325.7,196.2,316.5,205.4,305.2,205.4z M288.5,186.7c1,9.2,9.3,15.8,18.5,14.8c7.8-0.9,13.9-7,14.8-14.8H288.5z"/>
	<path class="st3_doctor-67" d="M304.9,178c-1.6,0-3.1-0.1-4.7-0.4c-1-0.1-1.8-1.1-1.6-2.2s1.1-1.8,2.2-1.6c0,0,0.1,0,0.1,0&#10;&#9;&#9;c2.2,0.4,4.4,0.4,6.5,0.1c0-1.6-1.7-6.3-4-10.7c-0.4-1,0-2.1,1-2.5c0.9-0.4,1.9-0.1,2.4,0.8c1.7,3.2,5.5,11.1,4,14.3&#10;&#9;&#9;c-0.4,0.8-1.1,1.5-2,1.7C307.5,177.9,306.2,178,304.9,178z"/>
	<path class="st3_doctor-67" d="M268.5,147.7c-2.1,0-3.8-1.7-3.8-3.8c0-2.1,1.7-3.8,3.8-3.8l22.6-0.3h0c2.1,0,3.8,1.7,3.8,3.8&#10;&#9;&#9;s-1.7,3.8-3.8,3.8l-22.6,0.3H268.5z"/>
	<path class="st3_doctor-67" d="M343.9,147.3L343.9,147.3l-22.6-0.1c-2.1,0-3.8-1.7-3.8-3.8s1.7-3.8,3.8-3.8l22.6,0.1c2.1,0,3.8,1.7,3.8,3.8&#10;&#9;&#9;C347.7,145.6,346,147.3,343.9,147.3L343.9,147.3z"/>
	<path class="st3_doctor-67" d="M290.1,177.4h-19.3c-4.2,0-7.5-3.4-7.5-7.6v-11.2c0-4.2,3.4-7.5,7.5-7.6h19.3c4.2,0,7.6,3.4,7.6,7.6v11.2&#10;&#9;&#9;C297.7,174.1,294.3,177.4,290.1,177.4z M270.9,154.9c-2.1,0-3.7,1.7-3.7,3.7v11.2c0,2.1,1.7,3.7,3.7,3.7h19.3&#10;&#9;&#9;c2.1,0,3.7-1.7,3.8-3.7v-11.2c0-2.1-1.7-3.7-3.8-3.7L270.9,154.9z"/>
	<path class="st3_doctor-67" d="M339.5,177.4h-19.3c-4.2,0-7.6-3.4-7.6-7.6v-11.2c0-4.2,3.4-7.6,7.6-7.6h19.3c4.2,0,7.5,3.4,7.5,7.6v11.2&#10;&#9;&#9;C347,174,343.6,177.4,339.5,177.4z M320.2,154.9c-2.1,0-3.7,1.7-3.8,3.7v11.2c0,2.1,1.7,3.7,3.8,3.7h19.3c2.1,0,3.7-1.7,3.7-3.7&#10;&#9;&#9;v-11.2c0-2.1-1.7-3.7-3.7-3.7L320.2,154.9z"/>
	<path class="st3_doctor-67" d="M265.2,164.4c-0.3,0-0.6-0.1-0.9-0.2l-12.5-7c-0.9-0.6-1.2-1.7-0.6-2.6c0.5-0.8,1.6-1.1,2.5-0.7l12.5,7&#10;&#9;&#9;c0.9,0.5,1.2,1.7,0.7,2.6C266.5,164,265.9,164.3,265.2,164.4L265.2,164.4z"/>
	<path class="st3_doctor-67" d="M346.1,164.4c-1.1,0-1.9-0.9-1.9-1.9c0-0.7,0.4-1.3,1-1.7l12.5-7c0.9-0.5,2.1-0.1,2.6,0.9&#10;&#9;&#9;c0.4,0.9,0.1,1.9-0.7,2.5l-12.5,7C346.8,164.3,346.4,164.4,346.1,164.4z"/>
	<path class="st3_doctor-67" d="M314.5,164.4c-0.4,0-0.8-0.1-1.1-0.4c-7.6-5.3-16.3-0.1-16.7,0.1c-0.9,0.6-2.1,0.3-2.6-0.6s-0.3-2.1,0.6-2.6&#10;&#9;&#9;c0.5-0.3,11.1-6.7,20.8,0.1c0.9,0.6,1.1,1.8,0.5,2.7C315.7,164.1,315.1,164.4,314.5,164.4L314.5,164.4z"/>
	<rect x="288.3" y="325" class="st3_doctor-67" width="32.6" height="88.3"/>
	<path class="st3_doctor-67" d="M320.9,415.2h-32.6c-1,0-1.9-0.9-1.9-1.9V325c0-1,0.8-1.9,1.9-1.9c0,0,0,0,0,0h32.6c1,0,1.9,0.9,1.9,1.9&#10;&#9;&#9;c0,0,0,0,0,0v88.3C322.8,414.4,321.9,415.2,320.9,415.2C320.9,415.2,320.9,415.2,320.9,415.2z M290.2,411.4h28.8v-84.5h-28.8V411.4&#10;&#9;&#9;z"/>
	<path class="st3_doctor-67" d="M286.2,298.3c-0.6,0-1.2-0.3-1.5-0.8l-19.6-25.7c-0.6-0.8-0.5-1.9,0.3-2.6l11.7-10.2l-11.8-11.8&#10;&#9;&#9;c-0.4-0.4-0.6-0.8-0.6-1.4c0-0.5,0.2-1,0.6-1.4l19.9-19.4c0.8-0.7,2-0.6,2.7,0.2c0.6,0.7,0.6,1.8,0,2.5l-18.5,18l11.9,11.8&#10;&#9;&#9;c0.4,0.4,0.6,0.9,0.6,1.4c0,0.5-0.3,1-0.6,1.4l-11.9,10.4l18.5,24.3c0.6,0.8,0.5,2-0.3,2.7c0,0,0,0,0,0&#10;&#9;&#9;C287,298.2,286.6,298.3,286.2,298.3z"/>
	<path class="st3_doctor-67" d="M320.8,301c-1,0-1.9-0.8-1.9-1.9c0-0.4,0.1-0.8,0.4-1.2l20.6-27L328,260.6c-0.4-0.3-0.6-0.8-0.6-1.4&#10;&#9;&#9;c0-0.5,0.2-1,0.6-1.4l11.9-11.8l-18.5-18c-0.8-0.7-0.9-1.9-0.2-2.7c0.7-0.8,1.9-0.9,2.7-0.2c0.1,0.1,0.1,0.1,0.2,0.2l19.9,19.4&#10;&#9;&#9;c0.8,0.7,0.8,2,0,2.7c0,0,0,0,0,0l-11.8,11.8l11.7,10.2c0.8,0.7,0.9,1.8,0.3,2.6l-21.7,28.5C322,300.8,321.4,301,320.8,301z"/>
	<circle class="st0_doctor-67" cx="343.9" cy="285.9" r="8.1"/>
	<path class="st0_doctor-67" d="M343.9,295.9c-5.5,0-10-4.5-10-10s4.5-10,10-10s10,4.5,10,10S349.4,295.9,343.9,295.9z M343.9,279.7&#10;&#9;&#9;c-3.4,0-6.2,2.8-6.2,6.2s2.8,6.2,6.2,6.2s6.2-2.8,6.2-6.2c0,0,0,0,0,0C350.1,282.5,347.3,279.7,343.9,279.7z"/>
	<path class="st0_doctor-67" d="M257.8,317.8c-2.8,0-5.3-2-5.8-4.8l-3.2-16.6c-2.1-10.1,4.3-19.9,14.4-22c10.1-2.1,19.9,4.3,22,14.4&#10;&#9;&#9;c0,0.2,0.1,0.4,0.1,0.6l3.2,16.6c0.6,3.2-1.5,6.3-4.7,7l-7,1.3c-1,0.2-2-0.5-2.2-1.5c-0.2-1,0.5-2,1.5-2.2l7-1.3&#10;&#9;&#9;c1.1-0.2,1.9-1.3,1.7-2.5c0,0,0,0,0,0l-3.2-16.6c-1.9-7.9-9.8-12.9-17.8-11c-7.5,1.8-12.4,9-11.2,16.6l3.2,16.6&#10;&#9;&#9;c0.2,1.1,1.3,1.9,2.5,1.7l6.9-1.3c1-0.2,2,0.5,2.2,1.5c0.2,1-0.5,2-1.5,2.2l-6.9,1.3C258.6,317.8,258.2,317.8,257.8,317.8z"/>
	<circle class="st3_doctor-67" cx="265.4" cy="314.5" r="2.1"/>
	<path class="st3_doctor-67" d="M265.4,318.5c-0.8,0-1.6-0.2-2.2-0.7c-1.8-1.2-2.3-3.7-1.1-5.6c0.6-0.9,1.5-1.5,2.6-1.7c2.2-0.4,4.3,1,4.7,3.2&#10;&#9;&#9;c0,0,0,0,0,0l0,0c0.4,2.2-1,4.3-3.2,4.7C265.9,318.5,265.7,318.5,265.4,318.5L265.4,318.5z M265.4,314.3L265.4,314.3&#10;&#9;&#9;c-0.1,0-0.2,0.1-0.1,0.2c0,0.1,0.1,0.2,0.2,0.1c0.1,0,0.2-0.1,0.2-0.2S265.6,314.3,265.4,314.3L265.4,314.3z"/>
	<circle class="st3_doctor-67" cx="276.5" cy="312.4" r="2.1"/>
	<path class="st3_doctor-67" d="M276.5,316.4c-1.9,0-3.6-1.4-3.9-3.2l0,0c-0.4-2.2,1-4.3,3.2-4.7c1-0.2,2.1,0,3,0.6c1.8,1.2,2.3,3.7,1.1,5.6&#10;&#9;&#9;C279,315.7,277.8,316.4,276.5,316.4L276.5,316.4z M276.5,312.2L276.5,312.2c-0.1,0-0.2,0.1-0.1,0.2l0,0c0,0.1,0.1,0.2,0.2,0.1&#10;&#9;&#9;c0.1,0,0.2-0.1,0.1-0.2c0,0,0,0,0,0C276.7,312.2,276.6,312.2,276.5,312.2L276.5,312.2z"/>
	<path class="st0_doctor-67" d="M343.9,279.7c-0.2,0-0.4,0-0.6-0.1c-1-0.3-1.6-1.4-1.3-2.4c0.1-0.2,7.1-23.7-2.7-39.4&#10;&#9;&#9;c-4.6-7.4-12.2-11.9-22.8-13.6c-1-0.2-1.7-1.1-1.6-2.2c0.2-1,1.1-1.7,2.2-1.6c11.7,1.8,20.2,7,25.4,15.3&#10;&#9;&#9;c10.7,17.2,3.4,41.5,3.1,42.5C345.5,279.1,344.7,279.7,343.9,279.7z"/>
	<path class="st0_doctor-67" d="M263.9,278.4c-0.9,0-1.7-0.6-1.9-1.4c-0.2-1-6.1-24,4.7-41.2c5.5-8.7,14.2-14.2,26.1-16.5c1-0.2,2,0.6,2.2,1.6&#10;&#9;&#9;c0.1,1-0.5,1.9-1.5,2.1c-10.7,2.1-18.6,7-23.5,14.8c-10,15.7-4.3,38-4.3,38.2c0.3,1-0.3,2-1.3,2.3c0,0,0,0,0,0&#10;&#9;&#9;C264.2,278.4,264,278.4,263.9,278.4z"/>
	<circle class="st3_doctor-67" cx="343.9" cy="285.9" r="5.3"/>
	<path class="st6_doctor-67" d="M234.6,314.5l-28.4-64.9c0,0,3.8-24.7,1.1-27.8s-6.7-0.9-8.1,9.2c0,0-7.4-23.9-13.5-24.1s-17.6,10.6-17.3,16&#10;&#9;&#9;s11.1,30.9,11.1,30.9l24.9,72.5c3.1,8.4,12.4,12.8,20.8,9.7c8.4-3.1,12.8-12.4,9.7-20.8C234.7,315,234.6,314.8,234.6,314.5&#10;&#9;&#9;L234.6,314.5z"/>
	<path class="st3_doctor-67" d="M219.4,338.6c-7.5,0-14.2-4.6-16.9-11.5l-24.9-72.6c-1.1-2.5-10.9-25.8-11.2-31.4c-0.2-4,3.9-8.7,5.7-10.6&#10;&#9;&#9;c3.5-3.6,9.1-7.7,13.5-7.4c1.6,0.1,6.8,1.8,13.2,19.2c1.1-2.9,2.7-4.8,4.7-5.3c1.9-0.5,3.9,0.2,5.1,1.7c2.8,3.2,0.9,19.1-0.6,28.8&#10;&#9;&#9;l28.2,64.4v0.1c3.6,9.3-1,19.9-10.3,23.5C223.9,338.2,221.7,338.6,219.4,338.6L219.4,338.6z M185.4,208.8c-2.5,0-6.9,2.6-10.5,6.3&#10;&#9;&#9;c-3.3,3.4-4.7,6.3-4.6,7.6c0.2,3.7,6.7,20.2,11,30.3l24.9,72.7c2.9,7.4,11.2,11,18.6,8.1c7.4-2.9,11-11.2,8.1-18.6l0,0l-28.4-64.8&#10;&#9;&#9;c-0.1-0.3-0.2-0.7-0.1-1.1c1.7-11.1,2.8-24.3,1.6-26.3c-0.4-0.5-0.8-0.6-1.1-0.6c-0.9,0.3-2.7,2.4-3.6,8.8c-0.1,1-1.1,1.8-2.1,1.6&#10;&#9;&#9;c-0.7-0.1-1.4-0.6-1.6-1.3c-3.3-10.7-9-22.7-11.8-22.8H185.4z"/>
	<path class="st3_doctor-67" d="M190.4,247.2c-1.1,0-1.9-0.9-1.9-1.9c0-6.4,8.4-14.6,9.4-15.6c0.8-0.7,2-0.6,2.7,0.2c0.6,0.7,0.6,1.8-0.1,2.5&#10;&#9;&#9;c-3.2,3-8.2,9.2-8.2,12.8C192.3,246.3,191.4,247.2,190.4,247.2z"/>
	<path class="st7_doctor-67" d="M253.9,361.3l46.1-28.6c1.1-0.7,2.6-0.3,3.3,0.8l36.7,59.1c0.7,1.1,0.3,2.6-0.8,3.3l-46.1,28.6&#10;&#9;&#9;c-1.1,0.7-2.6,0.3-3.3-0.8l-36.7-59.1C252.4,363.5,252.8,362,253.9,361.3z"/>
	<path class="st3_doctor-67" d="M292.6,425.9c-0.5,0-1-0.1-1.5-0.2c-1.7-0.4-3.1-1.4-4-2.9l-34.4-55.5c-1.9-3-0.9-7,2.1-8.9l42.4-26.3&#10;&#9;&#9;c3-1.9,7-0.9,8.8,2.1l34.4,55.5c1.9,3,1,7-2.1,8.9c0,0,0,0,0,0L296,425C295,425.6,293.8,426,292.6,425.9z M300.6,335.1&#10;&#9;&#9;c-0.5,0-1,0.1-1.4,0.4l-42.5,26.3c-1.2,0.8-1.6,2.4-0.9,3.6c0,0,0,0,0,0l34.4,55.5c0.8,1.2,2.4,1.6,3.6,0.9l42.4-26.3l0,0&#10;&#9;&#9;c1.2-0.8,1.6-2.4,0.9-3.6c0,0,0,0,0,0l-34.4-55.5c-0.4-0.6-1-1-1.6-1.2C301,335.1,300.8,335.1,300.6,335.1L300.6,335.1z"/>
	<path class="st7_doctor-67" d="M268.3,347.4l12.8-8c0.7-0.4,1.6-0.2,2,0.5l3,4.8c0.4,0.7,0.2,1.6-0.5,2l-12.8,8c-0.7,0.4-1.6,0.2-2-0.5&#10;&#9;&#9;l-3-4.8C267.4,348.8,267.6,347.9,268.3,347.4z"/>
	<path class="st3_doctor-67" d="M272.5,356.4c-0.4,0-0.7,0-1.1-0.1c-1.2-0.3-2.3-1-2.9-2.1l-1.6-2.6c-1.4-2.2-0.7-5.1,1.5-6.5l10.6-6.6&#10;&#9;&#9;c2.2-1.4,5.1-0.7,6.4,1.5c0,0,0,0,0,0l1.6,2.6c1.4,2.2,0.7,5.1-1.5,6.5c0,0,0,0,0,0l0,0l-10.6,6.6&#10;&#9;&#9;C274.3,356.1,273.4,356.4,272.5,356.4z M281.5,341.6c-0.2,0-0.3,0-0.5,0.1l-10.6,6.6c-0.4,0.3-0.5,0.8-0.3,1.2l1.6,2.6&#10;&#9;&#9;c0.1,0.2,0.3,0.3,0.5,0.4c0.2,0.1,0.5,0,0.7-0.1l10.6-6.6c0.4-0.3,0.5-0.8,0.3-1.2l-1.6-2.6C282.1,341.8,281.8,341.6,281.5,341.6&#10;&#9;&#9;L281.5,341.6z M284.6,347.5L284.6,347.5z"/>
	<path class="st6_doctor-67" d="M409.7,316.5c-4.4-7.8-14.3-10.6-22.1-6.2l-51.9,38.7l-23.5-0.9l5.6,9c0,0-14.6,5.3-14,7.4s7.1,15.4,15.7,15.5&#10;&#9;&#9;c10,0.2,14.8-0.5,30.4-14.1l53.4-27.2C411.3,334.2,414.1,324.3,409.7,316.5z"/>
	<path class="st3_doctor-67" d="M321.4,381.9h-1.8c-9.7-0.2-16.8-14.1-17.6-17c-0.3-1.3-0.9-3.5,13-8.8l-4.4-7c-0.6-0.9-0.3-2.1,0.6-2.6&#10;&#9;&#9;c0.3-0.2,0.7-0.3,1.1-0.3l22.8,0.9l51.3-38.3l0.2-0.1c8.8-4.9,19.8-1.7,24.7,7l0,0c4.9,8.8,1.7,19.8-7,24.7l-53.3,27.1&#10;&#9;&#9;C336.5,380.1,331,381.9,321.4,381.9z M306,364.6c1.3,3.1,7,13.3,13.7,13.4c9.4,0.2,13.9-0.3,29.1-13.7c0.1-0.1,0.3-0.2,0.4-0.3&#10;&#9;&#9;l53.5-27.2c6.9-3.9,9.3-12.6,5.4-19.5l0,0c-3.9-6.9-12.5-9.3-19.4-5.6L337,350.4c-0.4,0.3-0.8,0.4-1.2,0.4l-19.9-0.8l3.7,6&#10;&#9;&#9;c0.6,0.9,0.3,2.1-0.6,2.6c-0.1,0.1-0.2,0.1-0.4,0.2C313.5,360.7,307.6,363.3,306,364.6z"/>
</g>
</svg>